<svg version="1.2" xmlns="http://www.w3.org/2000/svg" viewBox="0 0 200 200" width="200" height="200"><defs><linearGradient id="P" gradientUnits="userSpaceOnUse"/><linearGradient id="g1" x2="1" href="#P" gradientTransform="matrix(44,0,0,50,121,100)"><stop stop-color="#c514b4"/><stop offset="1" stop-color="#f05027"/></linearGradient><linearGradient id="g2" x2="1" href="#P" gradientTransform="matrix(44,0,0,49.812,35,99.906)"><stop stop-color="#c514b4"/><stop offset="1" stop-color="#f05027"/></linearGradient><linearGradient id="g3" x2="1" href="#P" gradientTransform="matrix(43,0,0,49.774,103,60.887)"><stop stop-color="#c514b4"/><stop offset="1" stop-color="#f05027"/></linearGradient><linearGradient id="g4" x2="1" href="#P" gradientTransform="matrix(43,0,0,49.774,54,139.113)"><stop stop-color="#c514b4"/><stop offset="1" stop-color="#f05027"/></linearGradient><linearGradient id="g5" x2="1" href="#P" gradientTransform="matrix(43,0,0,50,103,139)"><stop stop-color="#c514b4"/><stop offset="1" stop-color="#f05027"/></linearGradient><linearGradient id="g6" x2="1" href="#P" gradientTransform="matrix(43,0,0,50,54,61)"><stop stop-color="#c514b4"/><stop offset="1" stop-color="#f05027"/></linearGradient></defs><style>.a{fill:url(#g1)}.b{fill:url(#g2)}.c{fill:url(#g3)}.d{fill:url(#g4)}.e{fill:url(#g5)}.f{fill:url(#g6)}.g{fill:#fff}</style><path class="a" d="m147 75c3.5 1.7 6.6 3.7 9.8 5.8 2.7 1.6 2.7 1.6 8.2 3.2 0 10.6 0 21.1 0 32-3.3 1.3-6.6 2.6-10 4-3.5 2.6-3.5 2.6-6 5-3.7-1.4-7.1-3.1-10.5-5q-1.5-0.9-3.1-1.8-1.6-0.9-3.2-1.8c-1.6-0.9-1.6-0.9-3.3-1.9q-3.9-2.2-7.9-4.5c0.2-1.4 0.2-1.4 0.5-2.9 0.4-2.4 0.6-4.6 0.6-7.1q0-0.9 0-1.9c-0.1-2.7-0.6-5.4-1.1-8.1 1.1-0.6 1.1-0.6 2.3-1.3q4.2-2.3 8.3-4.6 1.8-1 3.6-2 2.6-1.5 5.2-2.9 1.6-0.9 3.2-1.8c2.3-1.2 2.3-1.2 3.4-2.4z"/><path class="b" d="m51 75c3.7 1.4 7.1 3.1 10.5 5q1.5 0.9 3.1 1.8 1.6 0.9 3.2 1.8 1.6 0.9 3.3 1.9 3.9 2.2 7.9 4.5-0.2 1.4-0.5 2.9c-0.4 2.4-0.6 4.6-0.6 7.1q0 0.9 0 1.9c0.1 2.7 0.6 5.4 1.1 8.1q-0.8 0.4-1.5 0.8-3.5 2-7 3.9-1.2 0.6-2.4 1.3-1.2 0.7-2.4 1.3c-1.2 0.7-1.2 0.7-2.4 1.3-2.9 1.8-5.7 3.7-8.5 5.7-1.8 0.7-1.8 0.7-3.9-0.1q-0.9-0.6-1.9-1.2-1-0.6-1.9-1.2-2-1.3-3.9-2.6c-2.7-1.6-2.7-1.6-8.2-3.2 0-10.6 0-21.1 0-32 3.3-1.3 6.6-2.6 10-4 3.5-2.6 3.5-2.6 6-5z"/><path class="c" d="m118 36c7.3 3.5 14.4 7.1 21.3 11.3 1.6 0.9 1.6 0.9 3.3 1.9 2.4 1.8 2.4 1.8 3.4 4.8q-0.5 2-1 4c-0.2 4.5 0.2 8.6 1 13q-5.4 3.3-10.9 6.5-1.8 1.1-3.7 2.2-2.6 1.6-5.3 3.2c-1.6 1-1.6 1-3.3 2-2.8 1.1-2.8 1.1-5.1 0.4q-0.8-0.7-1.7-1.3-1-0.6-2-1.2-1.9-1.3-3.9-2.6c-2.5-1.5-2.5-1.5-7.1-3.2 0-10.6 0-21.1 0-32 3-1.3 5.9-2.6 9-4 3.4-2.6 3.4-2.6 6-5z"/><path class="d" d="m82.3 114.7q0.8 0.7 1.7 1.3c1 0.6 1 0.6 2 1.2q1.9 1.3 3.9 2.6c2.5 1.5 2.5 1.5 7.1 3.2 0 10.6 0 21.1 0 32-3.3 1.3-6.6 2.6-10 4-3.5 2.6-3.5 2.6-6 5q-5.3-2.9-10.6-5.8-1.8-0.9-3.6-1.9-2.6-1.4-5.1-2.8c-1.6-0.9-1.6-0.9-3.2-1.8-2.6-1.7-3.5-2.8-4.5-5.7 0.4-1.8 0.4-1.8 1-4 0.2-4.5-0.2-8.6-1-13q5.4-3.3 10.9-6.5 1.8-1.1 3.7-2.2 2.6-1.6 5.3-3.2c1.6-1 1.6-1 3.3-2 2.8-1.1 2.8-1.1 5.1-0.4z"/><path class="e" d="m118 114c5.4 1.5 9.8 4.1 14.6 6.9 1.1 0.7 1.1 0.7 2.2 1.4q3.1 1.8 6.2 3.7 1.5 0.9 3 1.8 1 0.6 2 1.2-0.1 1.3-0.3 2.6-0.1 1.8-0.3 3.5-0.1 1.7-0.3 3.5c-0.1 3.3 0.2 6.2 0.9 9.4-8.5 6.1-17.8 11-27 16q-0.7-0.6-1.5-1.2-1-0.8-2-1.6-1-0.8-2-1.6c-3.2-2.2-3.2-2.2-10.5-4.6 0-10.6 0-21.1 0-32 4-2 7.9-4 12-6q1.5-1.5 3-3z"/><path class="f" d="m81 36c0.7 0.6 0.7 0.6 1.5 1.2q1 0.8 2 1.6 1 0.8 2 1.6c3.2 2.2 3.2 2.2 10.5 4.6 0 10.6 0 21.1 0 32-4 2-7.9 4-12 6q-1.5 1.5-3 3c-5.4-1.5-9.8-4.1-14.6-6.9q-1.1-0.7-2.2-1.4-3.1-1.8-6.2-3.7-1.5-0.9-3-1.8-1-0.6-2-1.2 0.1-1.3 0.3-2.6 0.1-1.8 0.3-3.5 0.1-1.7 0.3-3.5c0.1-3.3-0.2-6.2-0.9-9.4 8.5-6.1 17.8-11 27-16z"/><path class="g" d="m83 171q1.4 0.7 2.9 1.5 1.9 1 3.8 1.9 0.9 0.5 1.9 1c5 2.7 5 2.7 10.4 3.6 2.6-1.2 4.9-2.4 7.3-3.9q1-0.6 2-1.2 2.3-1.4 4.7-2.9c2.6 4.5 2.2 8.1 1 13-2.8 5.3-6.3 9.1-12 11-6 0.5-10.9 0.5-16-3-3.6-3.7-6-6.9-7-12 0.1-3 0.5-6 1-9z"/><path class="g" d="m108.3 6.1c5.1 3.6 8.5 7.8 9.7 13.9-0.1 3-0.5 6-1 9q-1.4-0.7-2.9-1.5-1.9-1-3.8-1.9-0.9-0.5-1.9-1c-5-2.7-5-2.7-10.4-3.6-2.6 1.2-4.9 2.4-7.3 3.9q-1 0.6-2 1.2-2.3 1.4-4.7 2.9c-2.6-4.5-2.2-8.1-1-13 5.4-10.2 14.5-13.5 25.3-9.9z"/><path class="g" d="m170 121q1.9 0.6 3.8 1.3 1.1 0.4 2.2 0.8c4.1 1.9 6.1 5.3 8.3 9.3 1.7 6.4 1.1 11.2-2.1 16.8-2.9 4.3-6 6-11 7.2-5.2 0.9-9.5 0.1-14.2-2.4-1.8-1.6-1.8-1.6-3-3 0.5-1.5 0.5-1.5 1-3q2.5-1.1 5-2.1c3.5-1.5 6.5-3 9-5.9 2.1-6.1 1.4-12.7 1-19z"/><path class="g" d="m30 121q-0.2 1.9-0.3 3.8c-0.7 9.1-0.7 9.1 2.8 17 4.1 3.2 8.7 5.3 13.5 7.2-1.5 3.8-3.3 5.3-7 7-5.7 0.9-11.4 0.9-16.5-2-4.5-3.4-6.8-7.5-7.9-13-0.3-5.4 1.4-9.6 4.4-14 2.9-2.8 6.7-6 11-6z"/><path class="g" d="m175.2 44.7c4.8 2.5 7.6 6.3 9.6 11.2 0.8 6.8 0 11.4-3.8 17.1-3.4 3.4-6.5 4.6-11 6q0.2-1.9 0.3-3.8c0.7-9.1 0.7-9.1-2.8-17-4.1-3.2-8.7-5.3-13.5-7.2 3.3-8.6 13.5-8.7 21.2-6.3z"/><path class="g" d="m41.1 44.8c1.6 1 1.6 1 3.9 3.2q0 2 0 4-1.5 0.5-3 1.1c-4.2 1.7-8.1 3.4-11 6.9-2.1 6.1-1.4 12.7-1 19q-1.9-0.6-3.8-1.3-1.1-0.4-2.2-0.8c-4.1-1.9-6.2-5.4-8.3-9.3-1.7-6.3-0.7-11 2.3-16.6 6.1-7.1 14-9.5 23.1-6.2z"/><path class="g" d="m165 121c0 4.3 0 8.6 0 13-4.4-1.5-7.3-2.6-11-5 0.3-1.9 0.3-1.9 1-4 1.8-1.3 1.8-1.3 3.9-2.3q1.1-0.5 2.2-1c1.9-0.7 1.9-0.7 3.9-0.7z"/><path class="g" d="m165 66c0 4.3 0 8.6 0 13-8.8-2.8-8.8-2.8-11-5q0-1.5 0-3 2.2-1.3 4.4-2.5 1.2-0.7 2.4-1.4c2.2-1.1 2.2-1.1 4.2-1.1z"/><path class="g" d="m35 66c4.4 1.5 7.3 2.6 11 5-0.3 1.9-0.3 1.9-1 4-1.8 1.3-1.8 1.3-3.9 2.3q-1.1 0.5-2.2 1c-1.9 0.7-1.9 0.7-3.9 0.7 0-4.3 0-8.6 0-13z"/><path class="g" d="m35 121c8.8 2.8 8.8 2.8 11 5q0 1.5 0 3-2.2 1.3-4.4 2.5-1.2 0.7-2.4 1.4c-2.2 1.1-2.2 1.1-4.2 1.1 0-4.3 0-8.6 0-13z"/><path class="g" d="m117 94q0.3 2.2 0.6 4.3 0.1 1.2 0.3 2.4c0.1 2.3 0.1 2.3-0.9 5.3-4.2-0.7-7.4-2.9-11-5q0-1 0-2c1.6-1.3 1.6-1.3 3.8-2.6q1.1-0.7 2.2-1.4c2-1 2-1 5-1z"/><path class="g" d="m83 94c4 1.2 7.5 2.6 11 5q0 1 0 2-2.2 1.3-4.4 2.5-1.2 0.7-2.4 1.4c-2.2 1.1-2.2 1.1-4.2 1.1q-0.3-2.2-0.6-4.3-0.1-1.2-0.3-2.4c-0.1-2.3-0.1-2.3 0.9-5.3z"/><path class="g" d="m150 55c4.1 1.2 7.4 2.7 11 5-1.1 3.3-1.5 3.6-4.4 5.2q-0.9 0.5-1.8 1c-1.8 0.8-1.8 0.8-4.8 0.8-0.8-4.3-1.2-7.7 0-12z"/><path class="g" d="m150 133c4.9 1 7.1 2 11 5q0 1 0 2-2.2 1.3-4.4 2.5-1.2 0.7-2.4 1.4c-2.2 1.1-2.2 1.1-4.2 1.1 0-4 0-7.9 0-12z"/><path class="g" d="m50 133c0 4 0 7.9 0 12-4.1-1.2-7.4-2.7-11-5 1.1-3.3 1.5-3.6 4.4-5.2q0.9-0.5 1.8-1c1.8-0.8 1.8-0.8 4.8-0.8z"/><path class="g" d="m50 55c0 4 0 7.9 0 12-4.9-1-7.1-2-11-5q0-1 0-2 2.2-1.3 4.4-2.5 1.2-0.7 2.4-1.4c2.2-1.1 2.2-1.1 4.2-1.1z"/><path class="g" d="m103 27c3.6 2 7.3 4 11 6-3.1 4.7-5.6 5.9-11 7 0-4.3 0-8.6 0-13z"/><path class="g" d="m97 27c0 4.3 0 8.6 0 13-5.4-1.1-7.9-2.3-11-7q2.5-1.5 4.9-3 1.4-0.8 2.8-1.7c2.3-1.3 2.3-1.3 3.3-1.3z"/><path class="g" d="m97 160c0 4.3 0 8.6 0 13-3.6-2-7.3-4-11-6 3-4.2 5.6-7 11-7z"/><path class="g" d="m103 160c5.4 1.1 7.9 2.3 11 7-3.6 2-7.3 4-11 6 0-4.3 0-8.6 0-13z"/><path class="g" d="m97 105c0 4 0 7.9 0 12-5.4-0.4-7.5-2-11-6q2.2-1.5 4.4-3c1.2-0.8 1.2-0.8 2.4-1.7 2.2-1.3 2.2-1.3 4.2-1.3z"/><path class="g" d="m97 83c0 4 0 7.9 0 12-4.2-1.7-7.3-3.4-11-6 5.8-6 5.8-6 11-6z"/><path class="g" d="m103 105c3.3 1.7 6.6 3.3 10 5-1 4-1 4-3.3 5.8-2.7 1.2-2.7 1.2-6.7 1.2 0-4 0-7.9 0-12z"/><path class="g" d="m103 83c4.1 0.5 7 1 10 4q0 1.5 0 3c-5 2.5-5 2.5-10 5 0-4 0-7.9 0-12z"/></svg>